<svg width="6" height="10" viewBox="0 0 6 10" fill="none" xmlns="http://www.w3.org/2000/svg">
<path d="M3.7966 0.00012207H1.26553C0.913954 0.00012207 0.615174 0.132713 0.369054 0.397819C0.123049 0.662975 0 0.984924 0 1.36379V4.09103C0 4.46987 0.122979 4.79177 0.369054 5.05687C0.615151 5.32195 0.914023 5.45459 1.26553 5.45459H2.74196C2.91766 5.45459 3.0671 5.52091 3.19015 5.65345C3.3132 5.78592 3.3747 5.94699 3.3747 6.13648V6.36362C3.3747 6.86555 3.20989 7.29392 2.88036 7.6491C2.5508 8.00411 2.15317 8.18168 1.68731 8.18168H1.26553C1.15121 8.18168 1.05238 8.22678 0.968853 8.31668C0.885397 8.40659 0.843634 8.51316 0.843634 8.63627V9.54547C0.843634 9.66839 0.885397 9.77516 0.968853 9.86508C1.05245 9.95496 1.15119 10.0001 1.26553 10.0001H1.68734C2.14437 10.0001 2.58049 9.90406 2.99576 9.71237C3.41101 9.52065 3.77021 9.26134 4.07342 8.93461C4.37656 8.60786 4.61717 8.22089 4.79511 7.77341C4.97304 7.32596 5.06204 6.85605 5.06204 6.36365V1.36369C5.06204 0.984825 4.93899 0.662901 4.69296 0.397794C4.44693 0.132688 4.14808 0.00012207 3.7966 0.00012207Z" fill="#F6762C"/>
</svg>
